<svg width="229" height="229" fill="none" xmlns="http://www.w3.org/2000/svg">
    <style>
        @media (prefers-color-scheme: dark) {
            path {
                fill: #fff
            }
        }

        path {
            fill: #303333
        }
    </style>
    <path
        d="M191.003 156.2c0-21.84-13.2-39.36-46.08-45.12 29.52-7.44 38.16-25.92 38.16-43.68 0-22.32-14.16-40.56-61.68-40.32-6.48 0-67.44.24-79.44.24v.48c7.68 17.76 10.56 27.84 10.56 52.32v70.08c0 24.48-2.88 34.56-10.56 52.32v.48h82.32c47.28 0 66.72-18.72 66.72-46.8zm-95.28-48.72V35.96c4.32-.48 8.64-.96 13.92-.96 24 0 31.92 16.32 31.92 35.52 0 18-7.68 36.96-30.72 36.96h-15.12zm14.4 88.08c-5.28 0-10.32-.48-14.4-1.2v-78.72h15.84c26.16 0 34.56 17.52 34.56 39.6 0 23.28-10.8 40.32-36 40.32z" />
</svg>
